{"asset":{"version":"2.0","generator":"babylon.js glTF exporter for Maya 2018 v20200721.1"},"scene":0,"scenes":[{"nodes":[0]}],"nodes":[{"mesh":0,"name":"pCube71"}],"meshes":[{"primitives":[{"attributes":{"POSITION":1,"TANGENT":2,"NORMAL":3,"TEXCOORD_0":4},"indices":0,"material":0}],"name":"pCube71"}],"accessors":[{"bufferView":0,"componentType":5123,"count":10404,"type":"SCALAR","name":"accessorIndices"},{"bufferView":1,"componentType":5126,"count":3670,"max":[0.00674370863,0.01926636,0.006450909],"min":[-0.005,-0.00500000454,-0.006450909],"type":"VEC3","name":"accessorPositions"},{"bufferView":2,"componentType":5126,"count":3670,"type":"VEC4","name":"accessorTangents"},{"bufferView":1,"byteOffset":44040,"componentType":5126,"count":3670,"type":"VEC3","name":"accessorNormals"},{"bufferView":3,"componentType":5126,"count":3670,"type":"VEC2","name":"accessorUVs"}],"bufferViews":[{"buffer":0,"byteLength":20808,"name":"bufferViewScalar"},{"buffer":0,"byteOffset":20808,"byteLength":88080,"byteStride":12,"name":"bufferViewFloatVec3"},{"buffer":0,"byteOffset":108888,"byteLength":58720,"byteStride":16,"name":"bufferViewFloatVec4"},{"buffer":0,"byteOffset":167608,"byteLength":29360,"byteStride":8,"name":"bufferViewFloatVec2"}],"buffers":[{"uri":"jixie.bin","byteLength":196968}],"materials":[{"pbrMetallicRoughness":{"baseColorFactor":[0.0,0.0,0.0,1.0],"metallicFactor":0.0,"roughnessFactor":0.6},"name":"StingrayPBS1"}]}